<?xml version="1.0" encoding="UTF-8" standalone="no"?>
<!DOCTYPE svg PUBLIC "-//W3C//DTD SVG 1.1//EN" "http://www.w3.org/Graphics/SVG/1.1/DTD/svg11.dtd">
<!-- Created with Vectornator (http://vectornator.io/) -->
<svg height="352.7336860670194mm" stroke-miterlimit="10" style="fill-rule:nonzero;clip-rule:evenodd;stroke-linecap:round;stroke-linejoin:round;" version="1.1" viewBox="0 0 1000 1000" width="352.7336860670194mm" xml:space="preserve" xmlns="http://www.w3.org/2000/svg" xmlns:xlink="http://www.w3.org/1999/xlink">
<defs/>
<g id="Layer-1">
<g opacity="0.701893">
<g opacity="1">
<path d="M177.443 223.349C175.236 223.265 173 223.456 170.724 223.974C152.516 228.115 158.254 247.383 165.068 255.88C171.882 264.378 180.455 273.068 203.693 275.286C226.931 277.505 275.071 318.372 288.193 328.068C301.315 337.763 339.362 366.073 375.005 383.005C410.648 399.937 421.479 402.076 428.255 417.474C435.031 432.871 448.349 507.19 448.349 517.505C448.349 527.82 411.095 600.096 398.411 627.911C385.728 655.727 377.253 684.168 370.911 699.599C364.569 715.03 363.416 719.076 344.786 737.755C326.157 756.434 321.909 780.78 320.318 786.286C318.726 791.793 309.845 833.784 303.599 846.661C297.353 859.539 290.29 868.809 271.286 866.724C252.283 864.639 313.099 893.63 313.099 893.63C313.099 893.63 317.708 866.872 323.786 855.786C329.865 844.701 342.535 825.815 355.661 811.255C368.788 796.696 378.418 777.146 383.911 761.224C389.405 745.301 390.904 734.918 403.911 722.005C416.919 709.093 434.64 685.615 438.849 678.88C443.057 672.145 486.521 601.903 488.005 599.099C489.489 596.295 496.229 587.257 500.005 583.349C500.351 582.991 500.794 583.392 500.793 583.16C500.738 583.113 501.347 582.991 501.693 583.349C505.469 587.257 512.178 596.295 513.661 599.099C515.145 601.903 558.609 672.145 562.818 678.88C567.026 685.615 584.747 709.093 597.755 722.005C610.763 734.918 612.262 745.301 617.755 761.224C623.248 777.146 632.879 796.696 646.005 811.255C659.131 825.815 671.833 844.701 677.911 855.786C683.99 866.872 688.568 893.63 688.568 893.63C688.568 893.63 749.384 864.639 730.38 866.724C711.376 868.809 704.314 859.539 698.068 846.661C691.822 833.784 682.94 791.793 681.349 786.286C679.758 780.78 675.51 756.434 656.88 737.755C638.251 719.076 637.097 715.03 630.755 699.599C624.413 684.168 615.939 655.727 603.255 627.911C590.571 600.096 553.349 527.82 553.349 517.505C553.349 507.19 566.666 432.871 573.443 417.474C580.219 402.076 591.019 399.937 626.661 383.005C662.304 366.073 700.352 337.763 713.474 328.068C726.596 318.372 774.736 277.505 797.974 275.286C821.212 273.068 829.785 264.378 836.599 255.88C843.413 247.383 849.15 228.115 830.943 223.974C812.735 219.833 796.711 236.505 783.411 248.88C770.112 261.255 741.584 280.991 719.349 288.068C697.113 295.144 644.492 314.659 621.755 322.349C599.018 330.039 577.808 336.842 553.349 333.099C528.89 329.356 522.47 312.739 522.47 312.739C522.47 312.739 513.993 316.287 513.993 316.287C510.67 317.086 506.749 318.11 502.859 318.11C498.968 318.11 495.528 317.564 490.334 316.723C485.141 315.881 478.162 312.298 478.162 312.298C478.162 312.298 472.808 329.356 448.349 333.099C423.89 336.842 402.648 330.039 379.911 322.349C357.175 314.659 304.584 295.144 282.349 288.068C260.113 280.991 231.555 261.255 218.255 248.88C206.618 238.052 192.891 223.935 177.443 223.349Z" fill="#000000" fill-rule="nonzero" stroke="none"/>
<path d="M825.323 221.214C815.977 221.177 807.432 225.834 800.142 231.295C792.374 237.114 785.747 244.199 778.402 250.504C769.767 257.916 760.392 264.524 750.712 270.493C742.713 275.425 734.395 279.965 725.683 283.515C721.913 285.052 718.037 286.24 714.175 287.517C709.887 288.936 705.613 290.406 701.347 291.887C688.943 296.193 676.585 300.631 664.225 305.061C648.929 310.544 633.66 316.111 618.256 321.286C604.728 325.83 590.972 330.195 576.7 331.583C570.528 332.183 564.289 332.214 558.118 331.583C550.859 330.84 543.676 329.16 537.329 325.439C533.382 323.125 529.836 320.095 527.097 316.418C526.676 315.854 526.284 315.261 525.907 314.666C525.113 313.412 524.313 310.533 522.36 310.621C521.383 310.665 520.277 311.361 519.461 311.702C517.453 312.543 515.43 313.633 513.361 314.277C508.826 315.688 503.932 316.246 499.213 315.834C494.135 315.392 489.066 314.587 484.308 312.719C483.534 312.415 482.777 312.102 482.015 311.767C481.05 311.343 478.855 309.875 477.559 310.275C476.17 310.703 475.829 312.548 475.266 313.649C474.985 314.198 474.678 314.746 474.357 315.272C472.493 318.328 470.033 321.006 467.218 323.211C458.13 330.333 446.102 331.975 434.878 332.037C419.646 332.121 404.817 328.246 390.423 323.6C382.254 320.964 374.157 318.157 366.065 315.293C348.404 309.044 330.793 302.611 313.13 296.365C307.521 294.382 301.912 292.395 296.279 290.481C290.945 288.669 285.554 287.008 280.249 285.116C269.436 281.261 259.235 275.665 249.531 269.584C240.019 263.624 230.776 257.075 222.317 249.682C209.343 238.342 196.072 222.261 177.559 221.235C177.427 221.228 177.341 221.349 177.213 221.365C174.062 221.331 170.94 221.67 167.933 222.663C165.904 223.333 163.954 224.288 162.265 225.605C153.576 232.384 156.092 244.916 160.859 253.23C161.64 254.592 162.527 255.891 163.498 257.124C165.298 259.407 167.212 261.608 169.296 263.635C176.09 270.247 184.838 274.011 194.022 275.901C196.205 276.35 198.408 276.706 200.62 276.982C202.274 277.189 203.932 277.285 205.574 277.588C207.725 277.985 209.835 278.62 211.89 279.362C219.323 282.044 226.3 286.019 233.003 290.157C242.195 295.83 250.976 302.114 259.633 308.566C268.729 315.345 277.476 322.591 286.566 329.376C310.198 347.019 334.642 363.956 360.635 377.963C373.302 384.788 386.499 390.491 399.53 396.567C407.458 400.263 416.736 404.231 422.309 411.277C426.19 416.184 428.007 422.192 429.643 428.129C431.374 434.41 432.83 440.759 434.229 447.122C437.585 462.384 440.508 477.742 443.077 493.156C443.939 498.329 444.756 503.511 445.456 508.71C445.844 511.588 446.364 514.578 446.343 517.492C446.334 518.797 445.877 520.132 445.499 521.365C444.863 523.438 444.101 525.466 443.315 527.487C440.849 533.819 438.065 540.039 435.246 546.22C425.859 566.798 415.765 587.041 405.912 607.397C402.192 615.081 398.47 622.76 395.009 630.565C390.533 640.66 386.508 650.963 382.7 661.327C379.032 671.31 375.62 681.379 371.927 691.353C369.444 698.059 366.885 704.909 363.664 711.298C359.697 719.164 353.709 725.695 347.634 731.978C345.441 734.246 343.164 736.419 341.036 738.749C337.15 743.006 333.764 747.69 330.847 752.659C326.941 759.315 323.896 766.48 321.589 773.837C320.433 777.522 319.555 781.266 318.582 785C315.722 795.967 313.344 807.056 310.513 818.032C309.183 823.188 307.801 828.319 306.251 833.413C304.633 838.731 302.822 843.937 300.216 848.859C297.846 853.334 295.056 857.574 291 860.692C286.705 863.994 281.143 865.076 275.836 864.997C273.497 864.962 271.097 864.414 268.762 864.629C266.431 864.843 264.733 866.642 266.015 868.977C266.769 870.351 268.18 871.394 269.411 872.308C271.664 873.982 274.072 875.444 276.485 876.873C284.648 881.705 293.116 886.027 301.6 890.263C302.458 890.692 303.443 891.178 304.304 891.605C305.22 892.058 305.818 892.348 306.727 892.794C307.41 893.129 308.077 893.457 308.76 893.789C310.063 894.424 312.866 896.45 314.407 895.174C315.373 894.373 315.481 891.85 315.661 890.912C315.785 890.268 315.901 889.63 316.029 888.987C317.016 884.03 318.139 879.079 319.425 874.19C320.79 869.003 322.275 863.764 324.509 858.875C325.803 856.041 327.459 853.356 329.073 850.697C331.705 846.362 334.498 842.129 337.38 837.956C342.074 831.161 347.03 824.542 352.328 818.205C356.067 813.734 360.06 809.488 363.556 804.815C368.102 798.737 372.077 792.235 375.605 785.519C379.925 777.294 383.551 768.711 386.508 759.906C389.47 751.086 391.8 741.9 396.805 733.947C400.132 728.66 404.475 724.474 408.724 719.972C413.043 715.397 417.145 710.617 421.141 705.76C427.445 698.098 433.653 690.266 439.226 682.051C441.143 679.224 442.878 676.256 444.677 673.354C447.423 668.926 450.156 664.503 452.898 660.072C464.056 642.039 475.252 624.028 486.298 605.926C488.521 602.283 490.602 598.567 493.113 595.11C494.959 592.566 496.891 590.077 498.91 587.668C499.538 586.919 500.207 586.197 500.857 585.462C501.152 585.767 501.426 586.08 501.679 586.37C502.452 587.254 503.212 588.161 503.95 589.074C506.603 592.358 509.232 595.744 511.435 599.35C522.73 617.832 534.05 636.304 545.441 654.729C548.984 660.459 552.515 666.179 556.063 671.905C559.067 676.753 562.046 681.599 565.387 686.226C572.873 696.592 580.876 706.651 589.42 716.165C594.677 722.018 600.624 727.24 604.844 733.947C609.486 741.323 611.808 749.794 614.492 758.002C617.079 765.911 620.144 773.647 623.794 781.127C627.844 789.426 632.56 797.437 638.093 804.837C641.094 808.849 644.444 812.522 647.698 816.323C650.415 819.497 653.047 822.748 655.594 826.058C660.651 832.628 665.432 839.425 669.893 846.414C672.47 850.451 675.169 854.531 677.162 858.896C678.947 862.808 680.217 866.943 681.38 871.075C682.975 876.739 684.289 882.506 685.447 888.273C685.584 888.958 685.726 889.642 685.858 890.328C686.019 891.164 686.182 892 686.334 892.838C686.51 893.805 686.53 894.817 687.502 895.39C688.854 896.188 690.479 895.008 691.655 894.438C694.473 893.074 697.27 891.705 700.07 890.307C707.555 886.57 715.015 882.741 722.287 878.603C726.141 876.411 730.142 874.196 733.558 871.335C735.196 869.963 737.398 867.59 735.31 865.516C735.042 865.25 734.683 865.032 734.336 864.888C732.701 864.21 730.725 864.632 729.036 864.78C727.646 864.902 726.236 864.97 724.84 864.953C718.305 864.873 712.018 862.77 707.555 857.836C701.028 850.62 697.755 841.145 695.03 831.985C692.132 822.245 689.727 812.362 687.372 802.479C684.844 791.87 682.648 781.007 679.087 770.679C676.439 762.999 672.96 755.6 668.487 748.808C666.144 745.251 663.55 741.853 660.678 738.706C658.55 736.375 656.273 734.204 654.08 731.935C648.006 725.653 642.036 719.118 638.072 711.254C636.34 707.819 634.922 704.234 633.464 700.676C631.53 695.957 629.715 691.198 627.991 686.399C624.193 675.825 620.545 665.195 616.569 654.686C613.494 646.556 610.249 638.49 606.726 630.544C601.669 619.136 596.109 607.952 590.653 596.732C582.695 580.367 574.694 564.022 567.117 547.475C564.228 541.166 561.362 534.828 558.81 528.373C557.509 525.081 555.91 521.542 555.479 517.99C555.293 516.453 555.593 514.777 555.76 513.252C556.023 510.851 556.348 508.461 556.69 506.07C559.701 485.057 563.706 464.102 568.394 443.401C569.687 437.69 571.038 431.984 572.655 426.355C574.107 421.299 575.784 416.266 578.95 411.991C584.476 404.529 594.021 400.461 602.183 396.653C615.213 390.576 628.425 384.875 641.079 378.028C667.06 363.969 691.501 347.093 715.148 329.441C725.881 321.43 736.217 312.902 747.035 304.996C754.739 299.366 762.584 293.906 770.765 288.988C776.04 285.818 781.492 282.778 787.206 280.465C789.863 279.39 792.573 278.417 795.383 277.826C797.714 277.335 800.101 277.225 802.457 276.896C805.799 276.429 809.115 275.777 812.365 274.862C818.813 273.048 824.923 270.13 830.082 265.82C833.131 263.273 835.783 260.306 838.259 257.21C842.773 251.565 845.828 243.838 845.203 236.53C845.052 234.764 844.662 233.016 843.97 231.381C840.905 224.137 832.689 221.243 825.323 221.214ZM177.127 225.389C177.201 225.401 177.245 225.471 177.321 225.475C184.663 225.877 191.288 229.207 197.202 233.393C205.657 239.378 212.668 247.007 220.5 253.727C229.746 261.662 239.831 268.683 250.245 274.992C259.749 280.75 269.714 286.054 280.27 289.616C285.146 291.261 290.044 292.828 294.916 294.483C316.225 301.721 337.338 309.559 358.537 317.111C367.764 320.397 377.008 323.654 386.313 326.715C396.021 329.909 405.843 332.864 415.928 334.611C425.705 336.305 435.698 336.801 445.564 335.628C451.697 334.899 457.737 333.482 463.281 330.696C468.237 328.205 472.683 324.68 476.066 320.269C477.194 318.798 478.186 317.226 479.03 315.575C479.102 315.434 479.155 315.284 479.224 315.142C479.978 315.489 480.729 315.843 481.496 316.159C484.237 317.288 487.042 318.326 489.976 318.82C494.892 319.647 499.963 320.518 504.967 320.139C507.61 319.939 510.204 319.369 512.776 318.755C515.33 318.145 517.692 317.041 520.11 316.029C520.566 315.838 521.017 315.657 521.473 315.467C521.583 315.667 521.681 315.875 521.797 316.072C522.615 317.467 523.549 318.796 524.566 320.053C527.51 323.692 531.154 326.731 535.188 329.095C546.655 335.815 561.186 336.929 574.191 336.039C588.322 335.072 601.96 331.086 615.358 326.715C627.598 322.722 639.703 318.318 651.83 313.996C668.457 308.07 685.043 302.035 701.715 296.235C706.3 294.64 710.885 293.066 715.494 291.541C721.007 289.717 726.462 287.901 731.762 285.506C740.645 281.492 749.128 276.597 757.31 271.315C765.962 265.729 774.385 259.667 782.144 252.884C789.912 246.093 796.946 238.475 805.529 232.657C810.006 229.623 814.909 227.013 820.261 225.951C826.798 224.654 836.468 225.721 839.795 232.441C841.244 235.369 841.259 238.807 840.682 241.959C839.656 247.561 836.873 252.352 833.24 256.626C831.104 259.139 828.801 261.461 826.21 263.505C820.93 267.669 814.482 270.158 807.973 271.617C805.522 272.167 803.046 272.561 800.553 272.872C797.939 273.199 795.341 273.416 792.787 274.105C787.205 275.612 781.924 278.032 776.823 280.725C753.9 292.826 734.068 309.805 713.526 325.396C703.273 333.178 692.762 340.639 682.116 347.872C667.497 357.804 652.486 367.244 636.86 375.518C624.504 382.062 611.646 387.542 599.004 393.495C591.37 397.089 583.163 400.848 577.414 407.232C575.165 409.729 573.384 412.608 571.963 415.647C570.263 419.281 569.154 423.168 568.091 427.025C566.683 432.135 565.453 437.302 564.283 442.471C560.901 457.413 558.019 472.479 555.414 487.575C554.232 494.425 553.096 501.278 552.169 508.169C551.879 510.328 551.605 512.488 551.412 514.658C551.267 516.29 551.161 517.886 551.477 519.504C552.513 524.816 554.881 529.971 556.972 534.928C560.138 542.436 563.552 549.854 567.009 557.231C574.136 572.443 581.537 587.529 588.88 602.638C593.098 611.318 597.383 619.976 601.361 628.77C608.868 645.36 615.085 662.451 621.155 679.606C624.058 687.81 627.016 695.98 630.327 704.029C631.983 708.053 633.645 712.074 635.8 715.862C639.829 722.941 645.443 728.99 651.073 734.812C653.601 737.427 656.248 739.948 658.644 742.686C662.822 747.46 666.363 752.778 669.309 758.392C675.418 770.034 678.459 782.804 681.445 795.513C684.289 807.619 687.135 819.74 690.617 831.683C692.866 839.393 695.397 846.901 699.53 853.834C702.252 858.402 705.687 862.615 710.303 865.364C714.678 867.971 719.743 869.024 724.796 869.085C726.33 869.104 727.855 869.046 729.383 868.912C729.575 868.895 729.773 868.912 729.967 868.89C727.363 870.865 724.524 872.534 721.703 874.169C714.045 878.606 706.148 882.632 698.232 886.586C695.863 887.769 693.495 888.953 691.115 890.112C690.786 890.272 690.449 890.428 690.12 890.588C690.091 890.437 690.062 890.285 690.033 890.134C689.651 888.13 689.249 886.136 688.822 884.141C687.494 877.955 686 871.794 684.106 865.754C683.103 862.555 681.974 859.366 680.515 856.344C677.839 850.803 674.349 845.59 670.953 840.465C665.478 832.203 659.621 824.176 653.301 816.54C648.29 810.485 642.992 804.872 638.526 798.369C630.942 787.325 624.932 775.119 620.398 762.523C616.668 752.163 614.253 741.183 608.327 731.762C604.423 725.556 599.125 720.678 594.201 715.321C587.583 708.122 581.397 700.519 575.424 692.78C571.995 688.338 568.592 683.863 565.473 679.195C561.501 673.25 557.878 667.037 554.116 660.959C548.097 651.234 542.081 641.51 536.075 631.777C531.061 623.652 526.05 615.516 521.062 607.375C517.538 601.625 514.23 595.821 510.181 590.415C508.291 587.893 506.317 585.406 504.21 583.06C503.286 582.032 502.437 581.019 500.943 581.049C500.807 581.051 500.687 581.132 500.554 581.157C500.471 581.151 500.378 581.131 500.294 581.135C499.8 581.157 499.345 581.311 498.932 581.589C497.706 582.414 496.712 583.93 495.773 585.051C492.816 588.579 489.978 592.255 487.445 596.105C484.864 600.027 482.565 604.172 480.111 608.176C475.047 616.438 469.972 624.698 464.882 632.945C458.915 642.614 452.928 652.271 446.949 661.932C443.387 667.687 439.979 673.566 436.219 679.195C433.101 683.863 429.674 688.359 426.246 692.802C420.272 700.546 414.079 708.13 407.469 715.343C402.548 720.714 397.28 725.56 393.365 731.784C387.44 741.203 385.022 752.186 381.294 762.545C377.037 774.376 371.478 785.833 364.551 796.335C362.3 799.747 359.891 803.077 357.304 806.243C354.158 810.091 350.739 813.706 347.591 817.557C341.588 824.898 335.992 832.579 330.761 840.487C327.372 845.61 323.875 850.823 321.199 856.365C319.582 859.714 318.397 863.264 317.305 866.814C315.464 872.801 314.01 878.901 312.719 885.028C312.326 886.896 311.95 888.777 311.594 890.653C311.242 890.482 310.886 890.326 310.534 890.155C308.153 888.996 305.787 887.812 303.417 886.629C295.02 882.436 286.62 878.173 278.54 873.39C276.556 872.216 274.587 871.015 272.699 869.691C272.309 869.417 271.932 869.114 271.553 868.826C271.797 868.854 272.048 868.848 272.288 868.869C273.814 869.002 275.342 869.06 276.874 869.042C282.208 868.977 287.535 867.8 292.06 864.888C296.826 861.822 300.232 857.18 302.963 852.298C307.124 844.861 309.583 836.758 311.876 828.589C314.95 817.634 317.56 806.566 320.161 795.491C323.252 782.328 326.431 769.111 332.946 757.137C335.759 751.966 339.104 747.076 342.983 742.643C345.38 739.904 348.025 737.385 350.554 734.769C355.818 729.324 361.055 723.703 365.005 717.203C367.706 712.759 369.679 707.92 371.646 703.121C374.828 695.358 377.653 687.492 380.451 679.585C386.518 662.43 392.74 645.337 400.244 628.748C404.428 619.499 408.936 610.381 413.375 601.253C420.505 586.593 427.677 571.949 434.597 557.188C438.216 549.466 441.804 541.718 445.088 533.846C447.016 529.227 449.165 524.446 450.129 519.504C450.519 517.503 450.294 515.479 450.085 513.469C449.873 511.415 449.61 509.349 449.328 507.303C448.362 500.281 447.191 493.281 445.975 486.298C443.28 470.813 440.306 455.363 436.76 440.048C435.609 435.077 434.405 430.113 432.996 425.208C431.869 421.286 430.635 417.401 428.713 413.786C422.687 402.457 410.871 397.378 399.768 392.24C390.316 387.866 380.757 383.663 371.43 379.023C365.782 376.213 360.261 373.195 354.773 370.089C341.407 362.523 328.481 354.134 315.834 345.428C306.45 338.967 297.156 332.349 288.08 325.461C268.433 310.55 249.466 294.51 227.833 282.455C221.58 278.971 214.98 275.629 207.975 273.975C204.855 273.239 201.661 273.104 198.5 272.613C193.494 271.835 188.507 270.598 183.854 268.567C177.744 265.901 172.652 261.748 168.344 256.691C165.698 253.586 163.524 250.289 162.114 246.437C159.878 240.332 159.279 232.456 165.337 228.331C166.794 227.339 168.445 226.655 170.139 226.189C172.428 225.56 174.764 225.365 177.127 225.389ZM499.537 581.633C499.47 581.688 499.402 581.742 499.343 581.806C499.397 581.743 499.473 581.684 499.537 581.633ZM502.479 584.272C502.425 584.349 502.349 584.398 502.285 584.466C502.343 584.399 502.434 584.342 502.479 584.272ZM500.619 585.18C500.623 585.184 500.615 585.198 500.619 585.202C500.5 585.223 500.394 585.252 500.273 585.245C500.247 585.244 500.162 585.214 500.186 585.224C500.324 585.277 500.472 585.174 500.619 585.18Z" fill="#000000" stroke="none"/>
</g>
</g>
<path d="M64.2235 500C64.2235 259.327 259.327 64.2235 500 64.2235C740.673 64.2235 935.776 259.327 935.776 500C935.776 740.673 740.673 935.776 500 935.776C259.327 935.776 64.2235 740.673 64.2235 500Z" fill="none" opacity="1" stroke="#000000" stroke-linecap="butt" stroke-linejoin="miter" stroke-width="7"/>
<path d="M477.676 312.644C477.676 312.644 474.791 327.394 456.118 331.101C437.446 334.809 354.188 348.196 344.052 350.382C333.915 352.569 218.41 369.602 202.02 364.695C185.629 359.788 158.797 348.455 144.989 357.07C131.181 365.685 122.675 383.915 166.441 396.226C178.007 399.479 186.455 398.096 191.605 396.414C199.744 393.755 208.181 391.398 214.742 392.007C225.454 393.002 240.747 395.195 240.747 395.195C240.747 395.195 291.556 408.451 321.944 405.195C352.332 401.939 393.617 397.51 404.45 400.414C415.284 403.317 427.868 404.092 435.507 444.039C443.146 483.985 450.754 501.011 446.078 527.82C441.402 554.628 443.733 659.205 445.891 688.632C448.048 718.06 444.983 737.664 438.812 764.757C432.642 791.85 434.098 809.035 438.501 823.726C442.903 838.417 458.77 866.667 458.363 882.101C457.956 897.535 456.954 906.743 444.519 926.32C442.603 929.336 440.82 932.735 443.365 933.57C454.849 937.334 518.24 936.057 520.04 931.257C538.443 933.583 575.563 933.759 584.243 930.914C586.788 930.079 571.925 921.957 569.214 919.632C551.18 904.17 542.078 905.627 539.809 889.82C537.541 874.013 541.383 856.529 541.836 840.382C542.29 824.235 543.097 813.546 542.772 780.82C542.446 748.093 543.714 728.829 550.411 694.601C557.108 660.373 558.642 557.378 553.966 530.57C549.29 503.761 556.897 486.735 564.536 446.789C572.176 406.842 584.791 406.067 595.624 403.164C606.458 400.26 647.743 404.689 678.131 407.945C708.519 411.201 759.296 397.945 759.296 397.945C759.296 397.945 774.589 395.752 785.302 394.757C791.863 394.148 800.331 396.505 808.47 399.164C813.619 400.846 822.037 402.229 833.602 398.976C877.368 386.665 868.863 368.404 855.055 359.789C841.247 351.173 814.446 362.538 798.055 367.445C781.665 372.352 666.16 355.319 656.023 353.132C645.886 350.946 566.274 335.419 547.602 331.712C528.929 328.004 522.348 313.342 522.348 313.342L510.584 317C510.584 317 508.389 317.85 499.415 318.174C491.694 317.254 488.849 316.312 488.849 316.312L477.676 312.644ZM500.01 582.052C500.206 598.945 500.312 602.931 499.741 630.976C499.084 663.238 501.259 692.136 504.98 712.445C508.7 732.754 500.874 755.2 498.4 769.851C495.927 784.502 494.459 794.374 499.429 820.914C504.4 847.454 521.388 883.928 516.486 900.445C513.494 910.524 512.08 916.196 511.091 920.632C502.35 912.221 490.157 900.747 486.988 890.07C482.086 873.553 482.545 849.839 482.747 826.539C482.949 803.238 480.533 770.79 480.315 758.945C480.097 747.1 489.397 717.108 492.039 707.382C494.681 697.656 501.475 664.011 499.055 627.226C497.048 596.714 499.145 600.688 500.01 582.052Z" fill="#000000" fill-rule="nonzero" opacity="1" stroke="#000000" stroke-linecap="butt" stroke-linejoin="miter" stroke-width="4.43552"/>
<path d="M454.131 259.733C454.131 227.75 475.041 201.822 500.833 201.822C526.626 201.822 547.535 227.75 547.535 259.733C547.535 291.717 526.626 317.645 500.833 317.645C475.041 317.645 454.131 291.717 454.131 259.733Z" fill="#000000" fill-rule="nonzero" opacity="1" stroke="#000000" stroke-linecap="butt" stroke-linejoin="miter" stroke-width="4"/>
<path d="M132.246 201.822L866.201 201.822L866.201 935.776L132.246 935.776L132.246 201.822Z" fill="none" opacity="1" stroke="#1a1a1a" stroke-linecap="butt" stroke-linejoin="miter" stroke-width="7"/>
</g>
</svg>
